<?xml version="1.0" encoding="UTF-8"?>
<svg xmlns="http://www.w3.org/2000/svg" xmlns:xlink="http://www.w3.org/1999/xlink" viewBox="0 0 515.34 673.26">
  <defs>
    <style>
      .cls-1 {
        mix-blend-mode: difference;
      }

      .cls-2 {
        isolation: isolate;
      }

      .cls-3 {
        fill: url(#linear-gradient);
      }
    </style>
    <linearGradient id="linear-gradient" x1="8.93" y1="572.38" x2="572.68" y2="102.08" gradientUnits="userSpaceOnUse">
      <stop offset="0" stop-color="#00a2f8" />
      <stop offset="1" stop-color="#00e5cf" />
    </linearGradient>
  </defs>
  <g class="cls-2">
    <g id="Layer_2" data-name="Layer 2">
      <g id="Layer_1-2" data-name="Layer 1">
        <g class="cls-1">
          <path class="cls-3"
            d="m288.53,0c1.99,2.11,3.26,3.13,4.14,4.42,15.97,23.63,31.7,47.44,47.91,70.91,9.33,13.51,19.26,26.61,29.22,39.67,9.63,12.65,19.8,24.88,29.44,37.53,11.15,14.63,22.45,29.18,32.81,44.36,13.27,19.45,26.64,38.94,38.12,59.44,9.76,17.43,17.56,36.05,25.02,54.64,5.28,13.16,8.82,27.06,12.6,40.78,1.75,6.36,2.24,13.07,3.26,19.62,1.26,8.02,3.4,16.04,3.53,24.08.35,20.94,2.17,41.95-1.48,62.8-4.02,22.99-10.75,45-20.76,66.23-10.12,21.45-22.38,41.26-37.39,59.59-13.6,16.61-29.57,30.33-46.84,42.91-12.68,9.23-26.09,17.07-40.36,23.3-12.84,5.6-26.07,10.09-39.69,13.89-30.75,8.56-61.93,10.44-93.33,8.23-18.93-1.33-38.08-3.65-56.11-10.46-14.82-5.6-29.75-11.13-43.92-18.13-11.19-5.52-21.91-12.44-31.73-20.15-12.88-10.11-25.52-20.81-36.67-32.74-9.99-10.68-18.64-22.87-26.4-35.31-8.18-13.13-15.39-27.01-21.58-41.2-6.69-15.32-11.01-31.45-14.53-47.97-5.48-25.71-3.71-51.44-2.59-77.09.64-14.73,4.53-29.47,8.26-43.86,3.93-15.18,8.68-30.26,14.44-44.84,5.77-14.6,12.47-28.96,20.14-42.65,9.63-17.18,20.25-33.85,31.2-50.23,9.94-14.88,20.68-29.24,31.47-43.52,8.69-11.5,18.17-22.41,26.97-33.83,8.9-11.55,17.46-23.36,26.07-35.13,9.11-12.46,18.29-24.87,27.09-37.55,11.16-16.07,21.91-32.43,32.97-48.57,1.58-2.31,3.88-4.14,5.84-6.19.39.22.78.44,1.18.66.08,1.77.23,3.54.23,5.31.01,26.33.15,52.66-.17,78.99-.05,3.86-1.62,8.15-3.72,11.46-8.5,13.45-17.19,26.8-26.38,39.79-8.71,12.31-18.12,24.13-27.22,36.16-7.5,9.91-14.97,19.83-22.52,29.7-5.24,6.85-10.74,13.5-15.86,20.44-7.16,9.72-14.35,19.45-21.03,29.5-8.06,12.12-15.99,24.36-23.23,36.97-5.18,9.02-9.26,18.69-13.59,28.17-2.4,5.26-4.61,10.64-6.36,16.14-3.1,9.76-5.58,19.71-8.68,29.47-8.72,27.42-6.87,55.63-4.92,83.5.99,14.15,6.11,28.15,10.4,41.89,6.01,19.24,16.32,36.3,27.95,52.74,7.94,11.23,16.95,21.38,27.14,30.36,8.39,7.38,17.5,14.17,27.07,19.92,10.89,6.54,22.23,12.77,34.12,17.07,12.69,4.59,26.1,7.99,39.48,9.68,15.93,2.01,32.16,1.58,48.25,2.34,14.94.7,29.43-2.29,43.93-5.14,18.41-3.62,35.23-11.56,51.58-20.26,19.55-10.4,35.98-25.13,50.37-41.73,14.71-16.97,27.06-36.05,34.92-57,8.29-22.1,15.2-44.97,14.15-69.26-.57-13.13.15-26.34-1.06-39.39-.89-9.61-3.62-19.11-6.16-28.5-2.98-11.03-6.03-22.1-10.16-32.73-4.11-10.59-9.36-20.75-14.52-30.9-4.57-8.99-9.32-17.92-14.66-26.46-6.5-10.39-13.38-20.59-20.68-30.43-11.05-14.9-22.74-29.32-33.91-44.12-13.08-17.33-26.13-34.68-38.77-52.33-10.91-15.22-21.31-30.81-31.71-46.39-1.67-2.5-3-5.79-3.03-8.72-.23-28.49-.15-56.98-.13-85.47,0-.95.24-1.91.58-4.44Z" />
        </g>
      </g>
    </g>
  </g>
</svg>